<mxGraphModel dx="1042" dy="674" grid="1" gridSize="10" guides="1" tooltips="1" connect="1" arrows="1" fold="1" page="1" pageScale="1" pageWidth="850" pageHeight="1100" math="0" shadow="0">
  <root>
    <mxCell id="0" />
    <mxCell id="1" parent="0" />
    <mxCell id="BCL6cf2pKQmfwlNNi0lI-1" value="&lt;b&gt;&lt;font style=&quot;font-size: 15px;&quot;&gt;name1 = Jhon&lt;/font&gt;&lt;/b&gt;" style="rounded=0;whiteSpace=wrap;html=1;" vertex="1" parent="1">
      <mxGeometry x="200" y="350" width="190" height="60" as="geometry" />
    </mxCell>
    <mxCell id="BCL6cf2pKQmfwlNNi0lI-2" value="&lt;b&gt;&lt;font style=&quot;font-size: 15px;&quot;&gt;name2 = Jhon&lt;/font&gt;&lt;/b&gt;" style="rounded=0;whiteSpace=wrap;html=1;" vertex="1" parent="1">
      <mxGeometry x="200" y="290" width="190" height="60" as="geometry" />
    </mxCell>
    <mxCell id="BCL6cf2pKQmfwlNNi0lI-3" value="&lt;b&gt;&lt;font style=&quot;font-size: 15px;&quot;&gt;name2 = Doe&lt;/font&gt;&lt;/b&gt;" style="rounded=0;whiteSpace=wrap;html=1;" vertex="1" parent="1">
      <mxGeometry x="200" y="230" width="190" height="60" as="geometry" />
    </mxCell>
    <mxCell id="BCL6cf2pKQmfwlNNi0lI-4" value="&lt;b&gt;&lt;font style=&quot;font-size: 16px;&quot;&gt;detail1&lt;/font&gt;&lt;/b&gt;" style="rounded=0;whiteSpace=wrap;html=1;" vertex="1" parent="1">
      <mxGeometry x="200" y="170" width="190" height="60" as="geometry" />
    </mxCell>
    <mxCell id="BCL6cf2pKQmfwlNNi0lI-5" value="&lt;b&gt;&lt;font style=&quot;font-size: 16px;&quot;&gt;detail2&lt;/font&gt;&lt;/b&gt;" style="rounded=0;whiteSpace=wrap;html=1;" vertex="1" parent="1">
      <mxGeometry x="200" y="110" width="190" height="60" as="geometry" />
    </mxCell>
    <mxCell id="BCL6cf2pKQmfwlNNi0lI-6" value="" style="whiteSpace=wrap;html=1;aspect=fixed;" vertex="1" parent="1">
      <mxGeometry x="460" y="110" width="300" height="300" as="geometry" />
    </mxCell>
    <mxCell id="BCL6cf2pKQmfwlNNi0lI-7" value="&lt;b&gt;&lt;font style=&quot;font-size: 16px;&quot;&gt;STACK&lt;/font&gt;&lt;/b&gt;" style="text;html=1;align=center;verticalAlign=middle;whiteSpace=wrap;rounded=0;" vertex="1" parent="1">
      <mxGeometry x="260" y="420" width="60" height="30" as="geometry" />
    </mxCell>
    <mxCell id="BCL6cf2pKQmfwlNNi0lI-8" value="&lt;b&gt;&lt;font style=&quot;font-size: 16px;&quot;&gt;HEAP&lt;/font&gt;&lt;/b&gt;" style="text;html=1;align=center;verticalAlign=middle;whiteSpace=wrap;rounded=0;" vertex="1" parent="1">
      <mxGeometry x="570" y="420" width="60" height="30" as="geometry" />
    </mxCell>
    <mxCell id="BCL6cf2pKQmfwlNNi0lI-9" value="" style="endArrow=none;html=1;rounded=0;" edge="1" parent="1">
      <mxGeometry width="50" height="50" relative="1" as="geometry">
        <mxPoint x="230" y="320" as="sourcePoint" />
        <mxPoint x="360" y="320" as="targetPoint" />
        <Array as="points">
          <mxPoint x="280" y="320" />
        </Array>
      </mxGeometry>
    </mxCell>
    <mxCell id="BCL6cf2pKQmfwlNNi0lI-10" value="&lt;div style=&quot;color: rgb(204, 204, 204); background-color: rgb(31, 31, 31); font-family: Consolas, &amp;quot;Courier New&amp;quot;, monospace; font-size: 14px; line-height: 19px; white-space: pre;&quot;&gt;&lt;div&gt;{&lt;/div&gt;&lt;div&gt;&amp;nbsp; &amp;nbsp; &lt;span style=&quot;color: #9cdcfe;&quot;&gt;name&lt;/span&gt;&lt;span style=&quot;color: #9cdcfe;&quot;&gt;:&lt;/span&gt;&lt;span style=&quot;color: #ce9178;&quot;&gt;&quot;Jhon&quot;&lt;/span&gt;,&lt;/div&gt;&lt;div&gt;&amp;nbsp; &amp;nbsp; &lt;span style=&quot;color: #9cdcfe;&quot;&gt;age&lt;/span&gt;&lt;span style=&quot;color: #9cdcfe;&quot;&gt;:&lt;/span&gt;&lt;span style=&quot;color: #b5cea8;&quot;&gt;25&lt;/span&gt;&lt;/div&gt;&lt;div&gt;};&lt;/div&gt;&lt;/div&gt;" style="text;html=1;align=center;verticalAlign=middle;whiteSpace=wrap;rounded=0;" vertex="1" parent="1">
      <mxGeometry x="570" y="230" width="60" height="30" as="geometry" />
    </mxCell>
    <mxCell id="BCL6cf2pKQmfwlNNi0lI-11" value="" style="endArrow=classic;html=1;rounded=0;" edge="1" parent="1" target="BCL6cf2pKQmfwlNNi0lI-10">
      <mxGeometry width="50" height="50" relative="1" as="geometry">
        <mxPoint x="390" y="150" as="sourcePoint" />
        <mxPoint x="440" y="100" as="targetPoint" />
      </mxGeometry>
    </mxCell>
    <mxCell id="BCL6cf2pKQmfwlNNi0lI-12" value="" style="endArrow=classic;html=1;rounded=0;" edge="1" parent="1" target="BCL6cf2pKQmfwlNNi0lI-10">
      <mxGeometry width="50" height="50" relative="1" as="geometry">
        <mxPoint x="390" y="200" as="sourcePoint" />
        <mxPoint x="550" y="271" as="targetPoint" />
      </mxGeometry>
    </mxCell>
  </root>
</mxGraphModel>
